<?xml version="1.0" encoding="UTF-8" standalone="no"?>
<svg viewBox="0 0 36 36" xmlns="http://www.w3.org/2000/svg" width="25" height="25" role="img"><title>S line Line</title><g fill="none"><path fill="#808183" d="M0,18 C0,8.0595 8.0595,0 18,0 C27.942,0 36,8.0595 36,18 C36,27.9405 27.942,36 18,36 C8.0595,36 0,27.9405 0,18"></path><path fill="#FFF" d="M13.91025 26.9619C11.68275 26.9619 9.90825 26.4534 8.63625 25.4529 7.41525 24.4899 6.77775 23.1534 6.74175 21.4839L9.90675 21.4839C10.02675 22.2339 10.25325 22.8084 10.57725 23.1999 11.20425 23.9424 12.27825 24.3189 13.76775 24.3189 14.65125 24.3189 15.37875 24.2229 15.93525 24.0309 17.02725 23.6499 17.57925 22.9284 17.57925 21.8844 17.57925 21.2604 17.30175 20.7729 16.75425 20.4324 16.23675 20.1204 15.41475 19.8429 14.30775 19.6059L12.43875 19.1949C10.62825 18.7959 9.37425 18.3594 8.70225 17.8944 7.58625 17.1294 7.02075 15.9144 7.02075 14.2794 7.02075 12.7854 7.57875 11.5254 8.67975 10.5354 9.78525 9.5424 11.44125 9.0384 13.59825 9.0384 15.39975 9.0384 16.95675 9.5154 18.22425 10.4559 19.44375 11.3619 20.10975 12.6834 20.20275 14.3874L17.03025 14.3874C16.92975 13.3689 16.43775 12.6294 15.56625 12.1884 14.96925 11.8899 14.22225 11.7399 13.34775 11.7399 12.36825 11.7399 11.57175 11.9349 10.98225 12.3264 10.37175 12.7284 10.06275 13.2999 10.06275 14.0214 10.06275 14.6949 10.37175 15.2049 10.98075 15.5364 11.35275 15.7449 12.11625 15.9849 13.31475 16.2654L16.34325 16.9809C17.64225 17.2854 18.62925 17.6964 19.27425 18.2049 20.25975 18.9864 20.76075 20.1324 20.76075 21.6159 20.76075 23.1399 20.16225 24.4254 18.98325 25.4319 17.79675 26.4474 16.08975 26.9619 13.91025 26.9619M24.786 17.77155L24.636 17.92155 22.9425 17.92155 22.7925 17.77155 22.7925 9.03855 22.9425 8.88855 29.133 8.88855 29.283 9.03855 29.283 10.44705 29.133 10.59705 24.786 10.59705 24.786 12.49905 28.578 12.49905 28.728 12.64905 28.728 14.04105 28.578 14.19105 24.786 14.19105 24.786 17.77155z"></path></g></svg>