<?xml version="1.0" encoding="UTF-8" standalone="no"?>
<svg viewBox="0 0 36 36" xmlns="http://www.w3.org/2000/svg" width="25" height="25" role="img"><title>S line Line</title><g fill="none" fill-rule="evenodd"><circle cx="18" cy="18" r="18" fill="#808183" fill-rule="nonzero"></circle><path fill="#FFF" fill-rule="nonzero" d="M14.494906,21.4798866 C14.5201134,22.488184 15.0242622,24.4039492 18.3264363,24.4039492 C20.1161643,24.4039492 22.1075517,23.9754227 22.1075517,22.0596576 C22.1075517,20.6480412 20.7463502,20.2699296 18.830585,19.8155656 L16.8896124,19.3618317 C13.9655498,18.681231 11.142317,18.0258376 11.142317,14.0430627 C11.142317,12.0264678 12.2262367,8.4722193 18.0995694,8.4722193 C23.6452053,8.4722193 25.1324441,12.1020901 25.1576515,14.3203445 L21.5277807,14.3203445 C21.426951,13.5137065 21.1244617,11.5979414 17.8222876,11.5979414 C16.3854637,11.5979414 14.6713581,12.1272976 14.6713581,13.7657809 C14.6713581,15.1773973 15.8309001,15.4798866 16.5871232,15.6563386 L20.9984245,16.7402584 C23.4687533,17.3452368 25.7374225,18.3535343 25.7374225,21.6052936 C25.7374225,27.0500998 20.1917866,27.5284109 18.6037181,27.5284109 C11.9993698,27.5284109 10.8650352,23.722088 10.8650352,21.4786262 L14.494906,21.4786262 L14.494906,21.4798866 L14.494906,21.4798866 Z"></path></g></svg>