<?xml version="1.0" encoding="UTF-8" standalone="no"?>
<svg viewBox="0 0 36 36" xmlns="http://www.w3.org/2000/svg" width="36" height="36" role="img"><title>S line Line</title><g fill="none" fill-rule="evenodd"><path fill="#FFF" fill-rule="nonzero" d="M14.494906,21.4798866 C14.5201134,22.488184 15.0242622,24.4039492 18.3264363,24.4039492 C20.1161643,24.4039492 22.1075517,23.9754227 22.1075517,22.0596576 C22.1075517,20.6480412 20.7463502,20.2699296 18.830585,19.8155656 L16.8896124,19.3618317 C13.9655498,18.681231 11.142317,18.0258376 11.142317,14.0430627 C11.142317,12.0264678 12.2262367,8.4722193 18.0995694,8.4722193 C23.6452053,8.4722193 25.1324441,12.1020901 25.1576515,14.3203445 L21.5277807,14.3203445 C21.426951,13.5137065 21.1244617,11.5979414 17.8222876,11.5979414 C16.3854637,11.5979414 14.6713581,12.1272976 14.6713581,13.7657809 C14.6713581,15.1773973 15.8309001,15.4798866 16.5871232,15.6563386 L20.9984245,16.7402584 C23.4687533,17.3452368 25.7374225,18.3535343 25.7374225,21.6052936 C25.7374225,27.0500998 20.1917866,27.5284109 18.6037181,27.5284109 C11.9993698,27.5284109 10.8650352,23.722088 10.8650352,21.4786262 L14.494906,21.4786262 L14.494906,21.4798866 L14.494906,21.4798866 Z"></path><g fill-rule="nonzero"><path fill="#808183" d="M0,18 C0,8.0595 8.058,0 18,0 C27.9405,0 36,8.0595 36,18 C36,27.9405 27.9405,36 18,36 C8.058,36 0,27.9405 0,18"></path><path fill="#FFF" d="M13.9101 26.9619C11.6826 26.9619 9.9081 26.4534 8.6361 25.4529 7.4151 24.4899 6.7776 23.1534 6.7416 21.4839L9.9066 21.4839C10.0266 22.2339 10.2531 22.8084 10.5771 23.1999 11.2041 23.9424 12.2781 24.3189 13.7676 24.3189 14.6511 24.3189 15.3786 24.2229 15.9351 24.0309 17.0271 23.6499 17.5791 22.9284 17.5791 21.8844 17.5791 21.2604 17.3016 20.7729 16.7541 20.4324 16.2366 20.1204 15.4146 19.8429 14.3076 19.6059L12.4386 19.1949C10.6281 18.7959 9.3741 18.3594 8.7021 17.8944 7.5861 17.1294 7.0206 15.9144 7.0206 14.2794 7.0206 12.7854 7.5786 11.5254 8.6796 10.5354 9.7851 9.5424 11.4411 9.0384 13.5981 9.0384 15.3996 9.0384 16.9566 9.5154 18.2241 10.4559 19.4436 11.3619 20.1096 12.6834 20.2026 14.3874L17.0301 14.3874C16.9296 13.3689 16.4376 12.6294 15.5661 12.1884 14.9691 11.8899 14.2221 11.7399 13.3476 11.7399 12.3681 11.7399 11.5716 11.9349 10.9821 12.3264 10.3716 12.7284 10.0626 13.2999 10.0626 14.0214 10.0626 14.6949 10.3716 15.2049 10.9806 15.5364 11.3526 15.7449 12.1161 15.9849 13.3146 16.2654L16.3431 16.9809C17.6421 17.2854 18.6291 17.6964 19.2741 18.2049 20.2596 18.9864 20.7606 20.1324 20.7606 21.6159 20.7606 23.1399 20.1621 24.4254 18.9831 25.4319 17.7966 26.4474 16.0896 26.9619 13.9101 26.9619M29.4450827 14.0007019C29.3893583 14.0275973 29.3316004 14.0527341 29.2718066 14.0761147 29.6948344 14.2604542 30.0007211 14.517311 30.1846812 14.8451762 30.3799235 15.1903646 30.4764 15.7096465 30.4764 16.4016L30.4764 17.0541C30.4764 17.4898884 30.4939257 17.7893166 30.5271962 17.9412044 30.5770635 18.1711484 30.6898694 18.3378165 30.9039 18.5106L30.8289 18.8301 28.5157668 18.7756379C28.4554268 18.5637119 28.4106492 18.3861325 28.3822641 18.247339 28.3277074 17.9652031 28.2983887 17.6819162 28.2954084 17.3972211L28.2819055 16.4940101C28.2746344 15.8948665 28.1713837 15.4970264 27.982867 15.307133 27.7943032 15.1185692 27.4262074 15.0201 26.8794 15.0201L24.9714 14.9451 24.8964 18.8301 22.8384 18.7551 22.9134 8.9631 27.56042 8.9631C28.2372551 8.97683503 28.7552585 9.06120536 29.123083 9.21972389 29.4909527 9.37892789 29.8034766 9.6125473 30.059959 9.92001716 30.2694862 10.170838 30.4359527 10.4503326 30.559366 10.7573249 30.6843735 11.0644422 30.7464 11.4142563 30.7464 11.8071 30.7464 12.2774389 30.6261653 12.7437338 30.3883461 13.2023839 30.1835255 13.5936437 29.867952 13.8877552 29.4450827 14.0007019zM29.2168374 14.0969045C29.2008317 14.1027571 29.1846859 14.1084889 29.1684 14.1141 29.2288231 14.1384315 29.2868891 14.1641607 29.3425906 14.1912841 29.3020337 14.1603831 29.2601148 14.1289758 29.2168374 14.0969045zM24.8214 10.7256L24.8214 13.3356 27.0819 13.4106C27.5259345 13.4106 27.8616969 13.3563823 28.0896895 13.2455526 28.5022101 13.0473502 28.7094 12.6551405 28.7094 12.0831 28.7094 11.4696808 28.5110655 11.0478202 28.1122581 10.8307274 27.8910095 10.7097568 27.5660362 10.6506 27.1374 10.6506L24.8964 10.6506 24.8214 10.7256z"></path></g></g></svg>